<svg width="242" height="63" viewBox="0 0 242 63" fill="none" xmlns="http://www.w3.org/2000/svg">
<g clip-path="url(#clip0)">
<path d="M23.4352 11.9804L29.6158 7.7244C30.613 7.03774 30.7762 5.62952 29.9625 4.73301L26.2619 0.655836C25.8828 0.238173 25.345 0 24.781 0H16.3333H7.4311C6.79348 0 6.19407 0.304032 5.81739 0.818505L0.386286 8.23645C0.135299 8.57925 0 8.99307 0 9.41794V18.8166C0 19.4733 0.322319 20.0881 0.862382 20.4616L22.3375 35.3134C23.4248 36.0654 23.4964 37.6467 22.4815 38.4938L18.7998 41.5668C18.0496 42.1929 16.9568 42.1854 16.2154 41.5488L14.7661 40.3046C14.065 39.7027 14.0835 38.6118 14.8046 38.034C15.5702 37.4205 15.5349 36.2445 14.7338 35.6781L7.58867 30.6264C6.8882 30.1311 5.9499 30.1378 5.25649 30.6429L0.822423 33.8728C0.305656 34.2493 0 34.8501 0 35.4894V42.4085C0 42.9383 0.210274 43.4466 0.584653 43.8215L8.16402 51.4131C8.53918 51.7888 9.04838 52 9.57937 52H17.5H27.0378C27.6459 52 28.221 51.7233 28.6005 51.2482L34.5627 43.7834C34.8458 43.429 35 42.9889 35 42.5353V31.4441C35 30.7799 34.6703 30.1591 34.1202 29.7872L13.8897 16.1097C12.7809 15.3601 12.707 13.7542 13.7422 12.9059L16.7857 10.4117C17.5363 9.79663 18.62 9.80904 19.3562 10.4411L20.9981 11.8507C21.6869 12.442 22.6875 12.4953 23.4352 11.9804Z" fill="#660708" stroke="black" stroke-opacity="0.05" stroke-linecap="round" stroke-linejoin="round"/>
<path fill-rule="evenodd" clip-rule="evenodd" d="M44 51C42.8954 51 42 50.1046 42 49V16.6212C42 16.2166 42.1227 15.8215 42.3519 15.4881L52.404 0.866941C52.7771 0.324233 53.3935 0 54.0521 0H69.6093C70.1762 0 70.7166 0.240643 71.0959 0.662071L74.4866 4.42954C74.8171 4.79679 75 5.27339 75 5.76747V40.8915C75 41.5811 75.3552 42.222 75.94 42.5875L77.6647 43.6654C78.4481 44.155 78.7942 45.1175 78.502 45.9939L77.8311 48.0066C77.6334 48.5998 77.0782 49 76.4528 49V49C75.6505 49 75 49.6505 75 50.4528V61C75 62.1046 74.1046 63 73 63H67C65.8954 63 65 62.1046 65 61V48.4599C65 47.5902 64.4379 46.8201 63.6096 46.5551L55.1096 43.8351C53.819 43.4221 52.5 44.3849 52.5 45.7399V49C52.5 50.1046 51.6046 51 50.5 51H44ZM52.8176 16.5059C52.6103 16.8285 52.5 17.2039 52.5 17.5874V31.6459C52.5 32.4637 52.9979 33.1992 53.7572 33.5029L62.2572 36.9029C63.5709 37.4284 65 36.4609 65 35.0459V12C65 10.8954 64.1046 10 63 10H58.0919C57.4114 10 56.7775 10.346 56.4095 10.9185L52.8176 16.5059Z" fill="#660708" stroke="black" stroke-opacity="0.05" stroke-linecap="round" stroke-linejoin="round"/>
<path d="M90.1685 1.36546L84.1386 4.24296C83.443 4.57494 83 5.27715 83 6.04797V50.2782C83 50.871 83.263 51.4333 83.718 51.8133L88.0638 55.4425C88.4896 55.7981 89.0439 55.9608 89.5943 55.8919L110.559 53.2657C111.242 53.1801 111.833 52.7494 112.124 52.1255L114.612 46.782C114.858 46.2531 114.861 45.643 114.62 45.1116L113.585 42.8295C113.075 41.7055 111.679 41.307 110.653 41.9927L108.505 43.4275C108.378 43.5126 108.241 43.5828 108.098 43.6367L104.833 44.8636C104.608 44.9482 104.369 44.9915 104.129 44.9915H95.0299C93.9253 44.9915 93.0299 44.096 93.0299 42.9915V3.17047C93.0299 1.69975 91.4958 0.732049 90.1685 1.36546Z" fill="#660708" stroke="black" stroke-opacity="0.05" stroke-linecap="round" stroke-linejoin="round"/>
<path fill-rule="evenodd" clip-rule="evenodd" d="M117 7.20183C117 6.95493 117.046 6.71017 117.135 6.47992L119.148 1.27809C119.446 0.507781 120.187 0 121.013 0H139.636C140.04 0 140.436 0.122835 140.769 0.352271L153.134 8.85848C153.676 9.23163 154 9.84783 154 10.5062V41.4938C154 42.1522 153.676 42.7684 153.134 43.1415L140.769 51.6477C140.436 51.8772 140.04 52 139.636 52H122.7C121.595 52 120.7 51.1046 120.7 50V24.1616V20.4848V16.8081V13.6566V12.3551C120.7 11.3333 119.872 10.5051 118.85 10.5051V10.5051C117.828 10.5051 117 9.67678 117 8.65505V7.20183ZM134.857 41.4949C133.753 41.4949 132.857 40.5995 132.857 39.4949V12.5051C132.857 11.4005 133.753 10.5051 134.857 10.5051H136.866C137.349 10.5051 137.815 10.6793 138.179 10.9958L141.155 13.5839C141.592 13.9637 141.843 14.5142 141.843 15.0931V37.2693C141.843 37.9401 141.507 38.5662 140.947 38.9366L137.588 41.1623C137.26 41.3792 136.876 41.4949 136.483 41.4949H134.857Z" fill="#660708" stroke="black" stroke-opacity="0.05"/>
<path fill-rule="evenodd" clip-rule="evenodd" d="M193.182 8.90605C193.696 9.28279 194 9.88185 194 10.519V41.481C194 42.1182 193.696 42.7172 193.182 43.0939L185.815 48.4953C185.679 48.5948 185.531 48.6768 185.375 48.7393L177.963 51.7031C177.486 51.8937 176.954 51.8937 176.478 51.7031L169.097 48.7519C168.92 48.6811 168.754 48.5854 168.605 48.4677L161.765 43.0952C161.282 42.716 161 42.1362 161 41.5224V10.4776C161 9.86381 161.282 9.28397 161.765 8.90481L168.605 3.53235C168.754 3.41461 168.92 3.31891 169.097 3.24814L176.478 0.296933C176.954 0.106315 177.486 0.106315 177.963 0.296932L185.375 3.2607C185.531 3.32321 185.679 3.40521 185.815 3.50474L193.182 8.90605ZM181.109 38.6073C181.484 38.2322 181.695 37.7234 181.695 37.1929V14.6453C181.695 14.2125 181.554 13.7913 181.295 13.4451L180.617 12.5417C180.239 12.0382 179.647 11.7419 179.017 11.7419H177.78H176.371C175.84 11.7419 175.332 11.9526 174.957 12.3275L173.891 13.3927C173.516 13.7678 173.305 14.2766 173.305 14.8071V37.1929C173.305 37.7234 173.516 38.2322 173.891 38.6073L174.957 39.6725C175.332 40.0474 175.84 40.2581 176.371 40.2581H177.78H178.629C179.16 40.2581 179.668 40.0474 180.043 39.6725L181.109 38.6073Z" fill="#660708" stroke="black" stroke-opacity="0.05" stroke-linecap="round" stroke-linejoin="round"/>
<path d="M205.258 51.3443L201.519 47.2261C201.185 46.8581 201 46.3788 201 45.8818V5.68741C201 5.15747 201.21 4.64919 201.585 4.2742L205.267 0.586787C205.642 0.211102 206.151 0 206.682 0H227.888C228.386 0 228.866 0.185805 229.234 0.521068L233.346 4.26478C233.763 4.64379 234 5.18071 234 5.74371V14.5917C234 15.993 232.596 16.9598 231.287 16.4604L224.92 14.0314C224.251 13.7761 223.809 13.1343 223.809 12.4182C223.809 11.4646 223.036 10.6916 222.082 10.6916H213.676C212.572 10.6916 211.676 11.587 211.676 12.6916V39.3084C211.676 40.413 212.572 41.3084 213.676 41.3084H227.425C228.183 41.3084 228.876 41.7369 229.214 42.415L232.555 49.1066C233.219 50.4363 232.252 52 230.766 52H206.739C206.175 52 205.637 51.7619 205.258 51.3443Z" fill="#660708" stroke="black" stroke-opacity="0.05" stroke-linecap="round" stroke-linejoin="round"/>
</g>
<defs>
<clipPath id="clip0">
<rect width="242" height="63" fill="white"/>
</clipPath>
</defs>
</svg>
