<svg width="99" height="28" viewBox="0 0 99 28" fill="none" xmlns="http://www.w3.org/2000/svg">
<path d="M30.928 24.12C30.16 24.12 29.4 23.912 28.648 23.496C27.896 23.064 27.296 22.232 26.848 21L26.248 19.44H19.528L17.608 24H16.528L23.248 8.16H23.968L29.248 21C29.648 21.928 30.024 22.568 30.376 22.92C30.728 23.256 31.232 23.456 31.888 23.52V24C31.6 24.08 31.28 24.12 30.928 24.12ZM19.888 18.48H25.768L22.888 11.52L19.888 18.48ZM33.7784 11.04C33.7784 10.224 33.6664 9.624 33.4424 9.24C33.2184 8.84 32.7704 8.64 32.0984 8.64H31.6184V8.16H33.7784C34.3704 8.16 34.8104 8.24 35.0984 8.4C35.4024 8.544 35.6184 8.816 35.7464 9.216C35.8744 9.616 35.9384 10.224 35.9384 11.04V23.04H44.4584V24H33.7784V11.04ZM46.7159 11.04C46.7159 10.224 46.6039 9.624 46.3799 9.24C46.1559 8.84 45.7079 8.64 45.0359 8.64H44.5559V8.16H50.8439C53.9479 8.16 56.2919 8.848 57.8759 10.224C59.4759 11.6 60.2759 13.52 60.2759 15.984C60.2759 17.568 59.9399 18.968 59.2679 20.184C58.5959 21.384 57.5959 22.32 56.2679 22.992C54.9559 23.664 53.3559 24 51.4679 24H46.7159V11.04ZM51.3959 23.16C52.5799 23.16 53.6439 22.872 54.5879 22.296C55.5479 21.704 56.2999 20.88 56.8439 19.824C57.3879 18.752 57.6599 17.504 57.6599 16.08C57.6599 14.688 57.3879 13.456 56.8439 12.384C56.3159 11.312 55.5719 10.48 54.6119 9.888C53.6519 9.296 52.5639 9 51.3479 9C50.5799 9 49.7799 9.128 48.9479 9.384V22.848C49.8439 23.056 50.6599 23.16 51.3959 23.16ZM69.8721 24.48C68.3841 24.48 67.0721 24.112 65.9361 23.376C64.8161 22.64 63.9521 21.632 63.3441 20.352C62.7361 19.072 62.4321 17.648 62.4321 16.08C62.4321 14.512 62.7361 13.088 63.3441 11.808C63.9521 10.528 64.8161 9.52 65.9361 8.784C67.0721 8.048 68.3841 7.68 69.8721 7.68C71.3601 7.68 72.6641 8.048 73.7841 8.784C74.9201 9.52 75.7921 10.528 76.4001 11.808C77.0081 13.088 77.3121 14.512 77.3121 16.08C77.3121 17.648 77.0081 19.072 76.4001 20.352C75.7921 21.632 74.9201 22.64 73.7841 23.376C72.6641 24.112 71.3601 24.48 69.8721 24.48ZM69.8721 23.52C70.9121 23.52 71.8081 23.216 72.5601 22.608C73.3281 22 73.9121 21.144 74.3121 20.04C74.7121 18.92 74.9121 17.6 74.9121 16.08C74.9121 14.56 74.7121 13.248 74.3121 12.144C73.9121 11.024 73.3281 10.16 72.5601 9.552C71.8081 8.944 70.9121 8.64 69.8721 8.64C68.8321 8.64 67.9281 8.944 67.1601 9.552C66.4081 10.16 65.8321 11.024 65.4321 12.144C65.0321 13.248 64.8321 14.56 64.8321 16.08C64.8321 17.6 65.0321 18.92 65.4321 20.04C65.8321 21.144 66.4081 22 67.1601 22.608C67.9281 23.216 68.8321 23.52 69.8721 23.52Z" fill="#292931"/>
<path d="M89.62 27.6C87.76 27.6 86.12 27.15 84.7 26.25C83.3 25.35 82.22 24.13 81.46 22.59C80.7 21.03 80.32 19.3 80.32 17.4C80.32 15.44 80.73 13.63 81.55 11.97C82.39 10.31 83.52 9 84.94 8.04C86.38 7.08 87.94 6.6 89.62 6.6C91.22 6.6 92.62 6.83 93.82 7.29C95.04 7.73 95.94 8.3 96.52 9C96.86 9.42 97.07 9.98 97.15 10.68C97.23 11.36 97.27 12.3 97.27 13.5H96.67C96.29 11.56 95.59 10.13 94.57 9.21C93.55 8.27 92.2 7.8 90.52 7.8C88.36 7.8 86.62 8.56 85.3 10.08C83.98 11.6 83.32 14.04 83.32 17.4C83.32 18.98 83.57 20.45 84.07 21.81C84.59 23.17 85.39 24.28 86.47 25.14C87.55 25.98 88.9 26.4 90.52 26.4C91.98 26.4 93.25 26.05 94.33 25.35C95.43 24.65 96.41 23.6 97.27 22.2L97.87 22.65C96.95 24.45 95.81 25.73 94.45 26.49C93.11 27.23 91.5 27.6 89.62 27.6Z" fill="#292931"/>
<path d="M8.46 27.51C7.36 27.51 6.28 27.36 5.22 27.06C4.16 26.76 3.29 26.33 2.61 25.77C1.95 25.21 1.62 24.57 1.62 23.85V20.64H2.16C2.5 22.64 3.16 24.09 4.14 24.99C5.12 25.87 6.47 26.31 8.19 26.31C9.27 26.31 10.19 26.04 10.95 25.5C11.73 24.96 12.12 24.21 12.12 23.25C12.12 22.41 11.86 21.68 11.34 21.06C10.82 20.44 9.98 19.79 8.82 19.11L5.13 16.92C3.85 16.16 2.94 15.39 2.4 14.61C1.88 13.83 1.62 12.88 1.62 11.76C1.62 10.22 2.15 8.99 3.21 8.07C4.29 7.13 5.7 6.66 7.44 6.66C8.46 6.66 9.47 6.81 10.47 7.11C11.47 7.39 12.29 7.81 12.93 8.37C13.59 8.91 13.92 9.54 13.92 10.26V13.47H13.38C13.04 11.47 12.39 10.04 11.43 9.18C10.49 8.3 9.16 7.86 7.44 7.86C6.52 7.86 5.71 8.14 5.01 8.7C4.31 9.26 3.96 9.99 3.96 10.89C3.96 11.71 4.21 12.39 4.71 12.93C5.23 13.47 6.09 14.1 7.29 14.82L10.98 17.01C12.34 17.83 13.3 18.59 13.86 19.29C14.42 19.99 14.7 20.88 14.7 21.96C14.7 23.64 14.14 24.99 13.02 26.01C11.9 27.01 10.38 27.51 8.46 27.51Z" fill="#292931"/>
</svg>
