<svg width="16" height="16" viewBox="0 0 16 16" fill="none" xmlns="http://www.w3.org/2000/svg">
<path d="M8.00001 1.5C6.62701 1.5 5.50001 2.627 5.50001 4V4.5H3.03101L3.00001 4.969L2.50001 13.969L2.46851 14.5H13.531L13.5 13.9685L13 4.9685L12.9685 4.5H10.5V4C10.5 2.627 9.37301 1.5 8.00001 1.5ZM8.00001 2.5C8.39783 2.5 8.77936 2.65804 9.06067 2.93934C9.34197 3.22064 9.50001 3.60218 9.50001 4V4.5H6.50001V4C6.50001 3.60218 6.65804 3.22064 6.93935 2.93934C7.22065 2.65804 7.60218 2.5 8.00001 2.5V2.5ZM3.96851 5.5H5.50001V7H6.50001V5.5H9.50001V7H10.5V5.5H12.0315L12.469 13.5H3.53151L3.96851 5.5Z" fill="black"/>
</svg>
